<?xml version="1.0" encoding="UTF-8"?>
<svg version="1.1" xmlns="http://www.w3.org/2000/svg" width="500" height="500">
<path d="M0 0 C-0.78761719 0.64324219 -1.57523438 1.28648438 -2.38671875 1.94921875 C-31.40885519 25.90485509 -53.29549066 56.72545616 -58 95 C-60.0594139 127.09253333 -54.49680327 156.46033243 -34 182 C-32.85725369 183.21053634 -31.69390303 184.40238668 -30.5 185.5625 C-29.675 186.366875 -28.85 187.17125 -28 188 C-28 188.66 -28 189.32 -28 190 C-27.43023437 190.24621094 -26.86046875 190.49242187 -26.2734375 190.74609375 C-23.62495777 192.20685319 -21.79852724 193.95944549 -19.625 196.0625 C-4.10341912 210.16894398 16.27322624 219.48839713 35.546875 227.2578125 C36.70835556 227.72832031 37.86983612 228.19882813 39.06651306 228.68359375 C52.91506974 234.24179981 66.96411077 239.23467456 81.02319336 244.22949219 C93.86529206 248.80113068 106.5960297 253.53161288 119.15625 258.8359375 C120.21546158 259.28308105 121.27467316 259.73022461 122.36598206 260.19091797 C145.98603766 270.31845912 166.88151489 284.89428042 176.8125 309.5625 C183.63594024 328.77587121 182.89879827 348.64685379 174.26367188 367.17675781 C163.82146646 388.53398527 147.93197584 402.84495749 125.671875 411.2578125 C107.2576613 417.2624474 88.47740812 418.13224724 70.42578125 410.2734375 C56.1915338 402.80103063 47.30655847 391.48950197 40.0078125 377.6015625 C38.32460688 374.43171796 36.26176811 371.78917592 34 369 C34 368.34 34 367.68 34 367 C33.34 367 32.68 367 32 367 C29.875 365.125 29.875 365.125 28 363 C28 362.34 28 361.68 28 361 C27.01 360.62875 27.01 360.62875 26 360.25 C23.61876404 359.25781835 21.4064188 358.18953354 19.125 357 C9.33462502 352.12301023 -0.13403085 351.65585779 -10.625 354.625 C-23.09872764 358.87740715 -32.2205262 365.83411463 -38.7109375 377.33984375 C-44.38098251 389.04075481 -44.58546193 401.40009494 -40.38671875 413.61328125 C-34.6820365 427.54556156 -26.46754403 439.45665335 -16.21484375 450.4765625 C-15 452 -15 452 -15 454 C-14.01 454.33 -13.02 454.66 -12 455 C-10.30784933 456.64078691 -8.64497742 458.31192274 -7 460 C-5.04114312 461.7110338 -3.06121037 463.3981942 -1.0625 465.0625 C-0.06347656 465.89910156 0.93554688 466.73570312 1.96484375 467.59765625 C4.89936124 469.92034384 7.85916485 471.97320176 11 474 C9 475 9 475 7.15014648 474.56958008 C4.57335126 473.6650104 2.0009376 472.75447281 -0.5625 471.8125 C-1.53541992 471.45518799 -2.50833984 471.09787598 -3.51074219 470.72973633 C-32.92161101 459.62701645 -59.4303344 443.70730052 -83 423 C-83.87398438 422.23816406 -84.74796875 421.47632813 -85.6484375 420.69140625 C-95.62569173 411.86295259 -104.86791818 402.56326058 -113 392 C-113.77150391 391.0104834 -113.77150391 391.0104834 -114.55859375 390.00097656 C-142.57474031 353.88085227 -160.18628718 311.3295898 -166 266 C-166.08732895 265.32812653 -166.1746579 264.65625305 -166.26463318 263.96401978 C-166.9405594 258.38546806 -167.1739823 252.88598475 -167.203125 247.26953125 C-167.21009399 246.36465973 -167.21706299 245.45978821 -167.22424316 244.52749634 C-167.24155049 241.62244979 -167.24796308 238.71759596 -167.25 235.8125 C-167.25100708 234.82234894 -167.25201416 233.83219788 -167.25305176 232.81204224 C-167.24328138 218.64485716 -166.80568782 204.9256445 -164 191 C-163.71727367 189.42995263 -163.43603877 187.85963601 -163.15625 186.2890625 C-157.04724661 153.51951638 -143.79806449 119.96077888 -124 93 C-123.28328125 92.01257813 -122.5665625 91.02515625 -121.828125 90.0078125 C-103.54898286 65.23642332 -35.98553161 -11.9951772 0 0 Z " fill="#16394F" transform="translate(167,15)"/>
<path d="M0 0 C40.22300292 8.45866091 78.29836589 29.77580566 108 58 C109.36868963 59.19476774 110.74329976 60.38280272 112.125 61.5625 C120.2800315 68.68777192 127.30415063 76.50272923 134 85 C134.79277344 85.98742187 135.58554687 86.97484375 136.40234375 87.9921875 C167.81977543 127.79752748 188.93721825 179.54418042 189.203125 230.73046875 C189.21013931 231.635159 189.21715363 232.53984924 189.22438049 233.47195435 C189.2418005 236.37718735 189.24823321 239.28221668 189.25 242.1875 C189.25067474 243.17898041 189.25134949 244.17046082 189.25204468 245.19198608 C189.23669249 259.3614795 188.83756564 273.07749536 186 287 C185.6561632 288.85545267 185.3124171 290.71092214 184.96875 292.56640625 C178.67336093 325.02409542 165.56505613 358.16486837 146 385 C145.56606934 385.60086426 145.13213867 386.20172852 144.68505859 386.82080078 C130.89211181 405.85648686 115.64323462 423.54685225 97 438 C96.04222656 438.77472656 95.08445312 439.54945313 94.09765625 440.34765625 C87.62472866 445.49824554 80.91833388 450.12262074 73.9375 454.5625 C73.11572266 455.08755127 72.29394531 455.61260254 71.44726562 456.15356445 C70.2803418 456.88385864 70.2803418 456.88385864 69.08984375 457.62890625 C68.39753662 458.06275635 67.70522949 458.49660645 66.99194336 458.94360352 C64.99470547 460.00280787 63.20834259 460.55462258 61 461 C63.75728812 458.23752901 66.52132165 455.48240411 69.296875 452.73828125 C70.44794781 451.59638556 71.59898906 450.45445805 72.75 449.3125 C73.33910156 448.73177734 73.92820312 448.15105469 74.53515625 447.55273438 C77.64906764 444.56844684 77.64906764 444.56844684 80 441 C80.66 441 81.32 441 82 441 C82.41185547 440.12541138 82.41185547 440.12541138 82.83203125 439.2331543 C83.9669837 437.06312711 85.21638606 435.22354338 86.6875 433.26953125 C115.17554519 394.94844563 130.39667204 350.17351062 123.8125 302.0625 C122.38914864 292.77376292 120.08561857 283.8686862 117 275 C116.66959717 274.03803711 116.66959717 274.03803711 116.33251953 273.05664062 C102.80311221 234.50225114 71.10027504 207.3130127 35.16796875 189.984375 C33.77870589 189.32279055 32.38938413 188.66132975 31 188 C30.36658691 187.69126953 29.73317383 187.38253906 29.08056641 187.06445312 C8.47745312 177.07186396 -13.74047796 170.13690738 -35.61056519 163.48794556 C-97.41979209 144.68083861 -97.41979209 144.68083861 -111.34765625 119.5703125 C-115.62776358 110.21237175 -116.33431987 101.37795962 -113.046875 91.515625 C-110.19735142 84.66826237 -106.09683886 78.37999657 -101 73 C-100.34 73 -99.68 73 -99 73 C-99 72.34 -99 71.68 -99 71 C-97.05859375 69.5625 -97.05859375 69.5625 -94.4375 68 C-93.59058594 67.484375 -92.74367187 66.96875 -91.87109375 66.4375 C-82.21842939 61.60460138 -70.99150818 61.60636916 -60.6875 64.375 C-53.42868248 66.87246444 -46.87391397 70.71704686 -40.26171875 74.5625 C-28.54369308 81.35330926 -17.63215115 85.5082748 -3.9375 81.875 C6.63800715 78.25485809 15.45117155 72.01820551 20.5703125 61.89453125 C25.58831161 50.12373905 26.50230873 40.52356578 22.31640625 28.19921875 C18.23680238 18.28469183 11.72383156 11.25807287 4 4 C2.66213156 2.67121725 1.32721722 1.33942152 0 0 Z " fill="#163A4F" transform="translate(311,7)"/>
<path d="M0 0 C1.32 0.66 2.64 1.32 4 2 C-0.96535667 8.30734496 -6.70038814 13.05785289 -13 18 C-13.96808594 18.78375 -14.93617188 19.5675 -15.93359375 20.375 C-22.39787409 25.51348526 -29.09369054 30.13026839 -36.0625 34.5625 C-36.88427734 35.08755127 -37.70605469 35.61260254 -38.55273438 36.15356445 C-39.7196582 36.88385864 -39.7196582 36.88385864 -40.91015625 37.62890625 C-41.60246338 38.06275635 -42.29477051 38.49660645 -43.00805664 38.94360352 C-45.00529453 40.00280787 -46.79165741 40.55462258 -49 41 C-46.24271188 38.23752901 -43.47867835 35.48240411 -40.703125 32.73828125 C-39.55205219 31.59638556 -38.40101094 30.45445805 -37.25 29.3125 C-36.36634766 28.44141602 -36.36634766 28.44141602 -35.46484375 27.55273438 C-32.35093236 24.56844684 -32.35093236 24.56844684 -30 21 C-29.34 21 -28.68 21 -28 21 C-27.72816895 20.42024414 -27.45633789 19.84048828 -27.17626953 19.24316406 C-26.00523359 17.00998053 -24.70154419 15.11693063 -23.1796875 13.109375 C-22.64472656 12.40039062 -22.10976563 11.69140625 -21.55859375 10.9609375 C-21.00300781 10.23132813 -20.44742187 9.50171875 -19.875 8.75 C-19.31167969 8.00492187 -18.74835938 7.25984375 -18.16796875 6.4921875 C-16.78151746 4.65925189 -15.39212232 2.82862987 -14 1 C-12.921875 2.83203125 -12.921875 2.83203125 -12 5 C-13.32827311 7.85578718 -14.14643942 9.57321971 -17 11 C-14.15384706 12.31455354 -14.15384706 12.31455354 -12.0625 11.1875 C-11.381875 10.795625 -10.70125 10.40375 -10 10 C-9.360625 9.731875 -8.72125 9.46375 -8.0625 9.1875 C-4.17149976 6.94722714 -1.42119286 4.26357859 0 0 Z " fill="#204053" transform="translate(421,427)"/>
<path d="M0 0 C-1.18142578 0.96486328 -1.18142578 0.96486328 -2.38671875 1.94921875 C-10.74311965 8.8544694 -18.44925531 16.22681111 -26 24 C-26.33 23.01 -26.66 22.02 -27 21 C-26.01 20.67 -25.02 20.34 -24 20 C-23.29925156 16.846632 -23 14.27275026 -23 11 C-23.99 11 -24.98 11 -26 11 C-26.33 11.99 -26.66 12.98 -27 14 C-29.0625 14.6875 -29.0625 14.6875 -31 15 C-31.33 14.01 -31.66 13.02 -32 12 C-4.16740199 -1.389134 -4.16740199 -1.389134 0 0 Z " fill="#4D6472" transform="translate(167,15)"/>
<path d="M0 0 C0.66 0 1.32 0 2 0 C1.39335098 6.93075733 -0.38170896 13.24287574 -2.4375 19.875 C-2.90639648 21.44121094 -2.90639648 21.44121094 -3.38476562 23.0390625 C-5.74565972 30.74565972 -5.74565972 30.74565972 -8 33 C-8 31.68 -8 30.36 -8 29 C-8.66 29 -9.32 29 -10 29 C-10.08131463 27.56344146 -10.13933559 26.1255517 -10.1875 24.6875 C-10.22230469 23.88699219 -10.25710938 23.08648437 -10.29296875 22.26171875 C-9.92946828 19.45549509 -9.18309126 18.73527767 -7 17 C-6.01 16.34 -5.02 15.68 -4 15 C-3.21011855 13.04614933 -3.21011855 13.04614933 -2.8125 10.875 C-2.544375 9.59625 -2.27625 8.3175 -2 7 C-1.34 7 -0.68 7 0 7 C0 4.69 0 2.38 0 0 Z " fill="#385664" transform="translate(492,305)"/>
<path d="M0 0 C0.44988281 0.3403125 0.89976562 0.680625 1.36328125 1.03125 C7.192212 5.4233902 13.08913804 9.7189713 19 14 C17 15 17 15 14.75341797 14.37915039 C13.84221191 14.03875732 12.93100586 13.69836426 11.9921875 13.34765625 C11.00605469 12.98349609 10.01992187 12.61933594 9.00390625 12.24414062 C7.97136719 11.85419922 6.93882812 11.46425781 5.875 11.0625 C4.83472656 10.67642578 3.79445312 10.29035156 2.72265625 9.89257812 C0.14583399 8.93513499 -2.42814288 7.97068496 -5 7 C-4.67 6.34 -4.34 5.68 -4 5 C-3.01 5 -2.02 5 -1 5 C-0.67 3.35 -0.34 1.7 0 0 Z " fill="#415A68" transform="translate(159,475)"/>
<path d="M0 0 C0.66 0.33 1.32 0.66 2 1 C2 5 2 5 1 7 C0.21625 7.103125 -0.5675 7.20625 -1.375 7.3125 C-4.2073159 7.76663472 -4.2073159 7.76663472 -5.8125 10.375 C-7.20608393 12.97536935 -7.20608393 12.97536935 -7 16 C-9.89234315 16.82638376 -11.88742431 17 -15 17 C-11.80573668 9.96948907 -6.00185406 4.6843739 0 0 Z " fill="#324E5F" transform="translate(93,54)"/>
<path d="M0 0 C1.65 1.32 3.3 2.64 5 4 C2.63066423 5.63381678 0.25513228 7.25704491 -2.125 8.875 C-2.79015625 9.33519531 -3.4553125 9.79539062 -4.140625 10.26953125 C-7.99188327 12.8747942 -11.45711093 14.76874969 -16 16 C-10.66666667 10.66666667 -5.33333333 5.33333333 0 0 Z " fill="#536A78" transform="translate(388,452)"/>
<path d="M0 0 C-2.12293902 1.81496336 -4.24822125 3.62704594 -6.375 5.4375 C-7.27992188 6.2119043 -7.27992188 6.2119043 -8.203125 7.00195312 C-12.7734375 10.88671875 -12.7734375 10.88671875 -15 12 C-15.98074671 8.94878802 -16.30648508 6.97239619 -15 4 C-12.3828125 2.48046875 -12.3828125 2.48046875 -9.125 1.1875 C-7.52011719 0.52814453 -7.52011719 0.52814453 -5.8828125 -0.14453125 C-3 -1 -3 -1 0 0 Z " fill="#486172" transform="translate(167,15)"/>
<path d="M0 0 C1.32 0.66 2.64 1.32 4 2 C-0.44512827 7.58490476 -5.24454091 11.79211991 -11 16 C-11.66 15.34 -12.32 14.68 -13 14 C-9.65555828 10.55421156 -6.19591355 7.44019134 -2.453125 4.4296875 C-0.73174415 2.95268301 -0.73174415 2.95268301 0 0 Z " fill="#4C6470" transform="translate(421,427)"/>
<path d="M0 0 C1.16406323 1.16406323 2.32754865 2.32870939 3.48828125 3.49609375 C4.53794602 4.5403339 5.59871848 5.57347976 6.66796875 6.59765625 C8.14814809 8.02861348 9.57767678 9.51152221 11 11 C11 11.66 11 12.32 11 13 C11.598125 13.2475 12.19625 13.495 12.8125 13.75 C15.28647521 15.16370012 16.43370255 16.65055383 18 19 C16.68 19.33 15.36 19.66 14 20 C14 19.34 14 18.68 14 18 C13.34 17.67 12.68 17.34 12 17 C12 16.34 12 15.68 12 15 C9.66633067 12.98821609 7.95214486 11.98404829 5 11 C5 9.68 5 8.36 5 7 C3.68 7 2.36 7 1 7 C0.67 4.69 0.34 2.38 0 0 Z " fill="#5E7581" transform="translate(128,192)"/>
<path d="M0 0 C-2.28712911 1.83925787 -4.57928535 3.67151494 -6.875 5.5 C-7.52597656 6.02464844 -8.17695313 6.54929687 -8.84765625 7.08984375 C-9.47285156 7.58613281 -10.09804688 8.08242188 -10.7421875 8.59375 C-11.3182373 9.05458984 -11.89428711 9.51542969 -12.48779297 9.99023438 C-14 11 -14 11 -16 11 C-15.67 9.68 -15.34 8.36 -15 7 C-14.34 7.33 -13.68 7.66 -13 8 C-13 7.34 -13 6.68 -13 6 C-12.01 6 -11.02 6 -10 6 C-10 5.01 -10 4.02 -10 3 C-9.34 3 -8.68 3 -8 3 C-8 1.68 -8 0.36 -8 -1 C-4.53578294 -2.23722038 -3.15772202 -1.73807388 0 0 Z " fill="#46606E" transform="translate(409,444)"/>
<path d="M0 0 C0.66 0 1.32 0 2 0 C2 0.66 2 1.32 2 2 C5.465 1.505 5.465 1.505 9 1 C9.93065133 3.60582371 10.14917407 4.64198224 9.0625 7.25 C8.711875 7.8275 8.36125 8.405 8 9 C8.66 9.66 9.32 10.32 10 11 C9.01 11 8.02 11 7 11 C5.17578125 8.84765625 5.17578125 8.84765625 3.3125 6.0625 C2.68988281 5.14597656 2.06726562 4.22945313 1.42578125 3.28515625 C0 1 0 1 0 0 Z " fill="#405C6D" transform="translate(44,392)"/>
<path d="M0 0 C0.391875 0.45375 0.78375 0.9075 1.1875 1.375 C2.95758994 3.16418199 2.95758994 3.16418199 5.5625 3.9375 C8 5 8 5 9.3125 7.125 C9.6528125 8.053125 9.6528125 8.053125 10 9 C11.65 9 13.3 9 15 9 C15 9.99 15 10.98 15 12 C10.53817564 10.68925635 7.00381243 8.92933989 3.125 6.375 C2.15820312 5.74335938 1.19140625 5.11171875 0.1953125 4.4609375 C-0.52914062 3.97882813 -1.25359375 3.49671875 -2 3 C-1.34 2.67 -0.68 2.34 0 2 C0 1.34 0 0.68 0 0 Z " fill="#48606E" transform="translate(221,143)"/>
<path d="M0 0 C-1.27469402 2.54938804 -2.49159226 2.74579613 -5 4 C-6.70921589 5.5412312 -6.70921589 5.5412312 -8 7 C-8.99 6.67 -9.98 6.34 -11 6 C-11.33 6.99 -11.66 7.98 -12 9 C-14.0625 9.6875 -14.0625 9.6875 -16 10 C-16.33 9.01 -16.66 8.02 -17 7 C-14.73272667 5.82592979 -12.46165376 4.66060261 -10.1875 3.5 C-9.22360352 2.99919922 -9.22360352 2.99919922 -8.24023438 2.48828125 C-5.30452301 0.99760916 -3.33873483 0 0 0 Z " fill="#4F6977" transform="translate(152,20)"/>
<path d="M0 0 C2.15641331 3.23461997 2.81100973 5.67072961 3.6875 9.4375 C3.95949219 10.57058594 4.23148437 11.70367187 4.51171875 12.87109375 C4.96085657 15.74916889 4.98469931 17.31025087 4 20 C3.01 20 2.02 20 1 20 C1.03480469 19.12988281 1.03480469 19.12988281 1.0703125 18.2421875 C1.1844266 13.30267728 0.60410666 9.70537954 -1 5 C-0.625 2.125 -0.625 2.125 0 0 Z " fill="#4F6471" transform="translate(490,180)"/>
<path d="M0 0 C5.28 1.32 10.56 2.64 16 4 C14.02 4.99 14.02 4.99 12 6 C12 5.34 12 4.68 12 4 C11.34 4 10.68 4 10 4 C9.34 5.32 8.68 6.64 8 8 C6.66372225 6.85760183 5.33104612 5.71098945 4 4.5625 C3.2575 3.92441406 2.515 3.28632813 1.75 2.62890625 C1.1725 2.09136719 0.595 1.55382812 0 1 C0 0.67 0 0.34 0 0 Z " fill="#768591" transform="translate(311,7)"/>
<path d="M0 0 C2.97 0.33 5.94 0.66 9 1 C8.360625 1.391875 7.72125 1.78375 7.0625 2.1875 C4.56221181 4.38472296 4.35049575 5.75791433 4 9 C2.35 7.68 0.7 6.36 -1 5 C-0.67 3.35 -0.34 1.7 0 0 Z " fill="#445F6E" transform="translate(321,11)"/>
<path d="M0 0 C1.32 0.66 2.64 1.32 4 2 C3.67 3.98 3.34 5.96 3 8 C0.125 8.625 0.125 8.625 -3 9 C-3.66 8.34 -4.32 7.68 -5 7 C-4.34 7 -3.68 7 -3 7 C-3 6.34 -3 5.68 -3 5 C-2.01 4.67 -1.02 4.34 0 4 C-0.33 3.34 -0.66 2.68 -1 2 C-0.67 1.34 -0.34 0.68 0 0 Z " fill="#375465" transform="translate(155,472)"/>
<path d="M0 0 C2.475 0.495 2.475 0.495 5 1 C5.95465783 3.16967689 6.14401212 4.56328793 5.3984375 6.82421875 C4.64129615 8.5684743 3.82390802 10.28627131 3 12 C2.67 12 2.34 12 2 12 C1.34 8.04 0.68 4.08 0 0 Z " fill="#415D6B" transform="translate(432,292)"/>
<path d="M0 0 C0 0.99 0 1.98 0 3 C-1.94348501 4.73223664 -3.94720004 6.39881603 -6 8 C-6.66 8.66 -7.32 9.32 -8 10 C-9.32 9.34 -10.64 8.68 -12 8 C-10.37982158 6.66081194 -8.75370657 5.3288031 -7.125 4 C-6.22007813 3.2575 -5.31515625 2.515 -4.3828125 1.75 C-2 0 -2 0 0 0 Z " fill="#4F6874" transform="translate(107,45)"/>
<path d="M0 0 C0.33 0.99 0.66 1.98 1 3 C-2.08559304 5.26881841 -3.42209376 6.05451946 -7.3125 5.6875 C-8.199375 5.460625 -9.08625 5.23375 -10 5 C-6.99385784 1.69324363 -4.54252119 0 0 0 Z " fill="#3D5B69" transform="translate(225,72)"/>
<path d="M0 0 C2 2 2 2 2.3125 4.5 C2.209375 5.325 2.10625 6.15 2 7 C1.01 7.66 0.02 8.32 -1 9 C-1.66 8.34 -2.32 7.68 -3 7 C-3.33 7 -3.66 7 -4 7 C-4 5.35 -4 3.7 -4 2 C-2.68 1.34 -1.36 0.68 0 0 Z " fill="#2C4B5D" transform="translate(150,21)"/>
<path d="M0 0 C0.99 0.33 1.98 0.66 3 1 C2.06409496 2.1055189 1.12620142 3.20935453 0.1875 4.3125 C-0.33457031 4.92738281 -0.85664063 5.54226563 -1.39453125 6.17578125 C-4.3373102 9.51952278 -4.3373102 9.51952278 -6 11 C-6.66 11 -7.32 11 -8 11 C-8 10.01 -8 9.02 -8 8 C-7.34 8 -6.68 8 -6 8 C-6 7.34 -6 6.68 -6 6 C-4.37550757 4.29220027 -2.70779973 2.62449243 -1 1 C-0.67 0.67 -0.34 0.34 0 0 Z " fill="#607380" transform="translate(326,400)"/>
<path d="M0 0 C0.33 0.66 0.66 1.32 1 2 C1.66 2 2.32 2 3 2 C3.144375 2.7425 3.28875 3.485 3.4375 4.25 C3.90187492 6.52027739 4.41863569 8.75759479 5 11 C3 11 3 11 0.875 9.125 C-1 7 -1 7 -1 5 C-1.99 4.67 -2.98 4.34 -4 4 C-2.68 2.68 -1.36 1.36 0 0 Z " fill="#48606E" transform="translate(196,371)"/>
<path d="M0 0 C0.66 0 1.32 0 2 0 C1.37968409 6.57534861 -0.14897283 12.66692592 -2 19 C-2.33 19 -2.66 19 -3 19 C-3.14285714 10.42857143 -3.14285714 10.42857143 -2 7 C-1.34 7 -0.68 7 0 7 C0 4.69 0 2.38 0 0 Z " fill="#6C808A" transform="translate(492,305)"/>
<path d="M0 0 C0.33 0.99 0.66 1.98 1 3 C-0.26342488 4.48549956 -1.5360103 5.96321189 -2.8125 7.4375 C-3.87404297 8.67306641 -3.87404297 8.67306641 -4.95703125 9.93359375 C-7 12 -7 12 -10 13 C-8.48446596 9.52224821 -6.4226544 7.0442016 -3.875 4.25 C-3.15054688 3.45078125 -2.42609375 2.6515625 -1.6796875 1.828125 C-0.84824219 0.92320313 -0.84824219 0.92320313 0 0 Z " fill="#6E848E" transform="translate(68,77)"/>
<path d="M0 0 C1.32 0 2.64 0 4 0 C4 0.66 4 1.32 4 2 C4.763125 2.12375 5.52625 2.2475 6.3125 2.375 C9.77925003 3.18122094 12.05362773 5.03575182 15 7 C14.67 7.66 14.34 8.32 14 9 C10.40241608 7.67726488 7.36262865 6.0805802 4.1875 3.9375 C3.39730469 3.41027344 2.60710937 2.88304687 1.79296875 2.33984375 C1.20128906 1.89769531 0.60960938 1.45554687 0 1 C0 0.67 0 0.34 0 0 Z " fill="#627884" transform="translate(102,452)"/>
<path d="M0 0 C1.32 1.32 2.64 2.64 4 4 C3.01 4.495 3.01 4.495 2 5 C2 6.32 2 7.64 2 9 C-0.31 8.34 -2.62 7.68 -5 7 C-4.67 6.34 -4.34 5.68 -4 5 C-3.01 5 -2.02 5 -1 5 C-0.67 3.35 -0.34 1.7 0 0 Z " fill="#536B79" transform="translate(159,475)"/>
<path d="M0 0 C4.51045941 2.46025059 8.18504423 5.60282037 12 9 C10 10 10 10 6 10 C4.09080647 7.38369776 3.02455574 5.07366722 2 2 C1.34 2 0.68 2 0 2 C0 1.34 0 0.68 0 0 Z " fill="#5E7783" transform="translate(404,53)"/>
<path d="M0 0 C0.33 0.66 0.66 1.32 1 2 C1.66 2.33 2.32 2.66 3 3 C1.3811004 4.03048037 -0.24532489 5.04914678 -1.875 6.0625 C-2.77992188 6.63097656 -3.68484375 7.19945312 -4.6171875 7.78515625 C-5.40351563 8.18605469 -6.18984375 8.58695312 -7 9 C-7.66 8.67 -8.32 8.34 -9 8 C-6.03 5.36 -3.06 2.72 0 0 Z " fill="#959EA4" transform="translate(381,459)"/>
<path d="M0 0 C0.99 0 1.98 0 3 0 C2.39196574 3.12308506 1.37985958 5.19251662 -0.5 7.75 C-1.16515625 8.67039062 -1.16515625 8.67039062 -1.84375 9.609375 C-2.2253125 10.06828125 -2.606875 10.5271875 -3 11 C-3.33 11 -3.66 11 -4 11 C-4.42362933 7.39915071 -3.96714943 5.93996275 -2.1875 2.6875 C-1.465625 1.800625 -0.74375 0.91375 0 0 Z " fill="#536979" transform="translate(134,42)"/>
<path d="M0 0 C1.32 0.66 2.64 1.32 4 2 C2.02 4.31 0.04 6.62 -2 9 C-2.33 8.34 -2.66 7.68 -3 7 C-3.66 6.67 -4.32 6.34 -5 6 C-4.360625 5.566875 -3.72125 5.13375 -3.0625 4.6875 C-0.73253997 3.08760823 -0.73253997 3.08760823 0 0 Z " fill="#5A717D" transform="translate(421,427)"/>
<path d="M0 0 C2.31 0.33 4.62 0.66 7 1 C7 1.66 7 2.32 7 3 C9.31 3.33 11.62 3.66 14 4 C14.33 4.99 14.66 5.98 15 7 C9.76727367 5.36041242 4.84803364 3.61047965 0 1 C0 0.67 0 0.34 0 0 Z " fill="#617582" transform="translate(336,191)"/>
<path d="M0 0 C2.475 0.495 2.475 0.495 5 1 C5.33 1.99 5.66 2.98 6 4 C6.99 4 7.98 4 9 4 C9.33 5.65 9.66 7.3 10 9 C8.70391053 8.06862408 7.41328368 7.1296434 6.125 6.1875 C5.40570313 5.66542969 4.68640625 5.14335937 3.9453125 4.60546875 C2 3 2 3 0 0 Z " fill="#4D6370" transform="translate(385,220)"/>
<path d="M0 0 C1.04916965 3.40980136 1.37043252 6.44384783 1 10 C-1 12.375 -1 12.375 -3 14 C-2.48594831 9.03083364 -1.76615118 4.70973649 0 0 Z " fill="#5F7480" transform="translate(12,170)"/>
<path d="M0 0 C4.57463432 2.46326463 7.21681784 4.21681784 11 8 C7.37 7.01 3.74 6.02 0 5 C0.66 4.67 1.32 4.34 2 4 C2 3.34 2 2.68 2 2 C1.34 2 0.68 2 0 2 C0 1.34 0 0.68 0 0 Z " fill="#9AA8AD" transform="translate(167,482)"/>
<path d="M0 0 C-2.64 1.98 -5.28 3.96 -8 6 C-8.66 4.68 -9.32 3.36 -10 2 C-3.375 -1.125 -3.375 -1.125 0 0 Z " fill="#889299" transform="translate(167,15)"/>
<path d="M0 0 C6.625 0.75 6.625 0.75 10 3 C10 3.66 10 4.32 10 5 C10.99 5.33 11.98 5.66 13 6 C7.71862571 5.48474397 4.42778844 3.74522883 0 1 C0 0.67 0 0.34 0 0 Z " fill="#607581" transform="translate(232,421)"/>
<path d="M0 0 C0.99 0 1.98 0 3 0 C2.39301257 4.12751449 0.96189209 7.3321148 -1 11 C-2.60080151 6.99799622 -1.29279692 3.95443764 0 0 Z " fill="#576F7C" transform="translate(477,348)"/>
<path d="M0 0 C0.66 1.98 1.32 3.96 2 6 C-1.3 5.01 -4.6 4.02 -8 3 C-8 2.67 -8 2.34 -8 2 C-2.25 0 -2.25 0 0 0 Z " fill="#546D7A" transform="translate(316,178)"/>
<path d="M0 0 C1 2 1 2 1 6 C0.01 6 -0.98 6 -2 6 C-2 6.66 -2 7.32 -2 8 C-2.99 8.495 -2.99 8.495 -4 9 C-4.33 9.99 -4.66 10.98 -5 12 C-5.66 12 -6.32 12 -7 12 C-5.44298069 7.32894208 -2.91552627 3.91294315 0 0 Z " fill="#697C88" transform="translate(46,104)"/>
<path d="M0 0 C0.66 1.32 1.32 2.64 2 4 C1.01 4.66 0.02 5.32 -1 6 C-1.33 6.99 -1.66 7.98 -2 9 C-5.0625 10.1875 -5.0625 10.1875 -8 11 C-7.59007812 10.45730469 -7.18015625 9.91460937 -6.7578125 9.35546875 C-6.21898437 8.64003906 -5.68015625 7.92460938 -5.125 7.1875 C-4.59132813 6.47980469 -4.05765625 5.77210937 -3.5078125 5.04296875 C-2.29185219 3.39543703 -1.13583859 1.70375789 0 0 Z " fill="#546977" transform="translate(331,70)"/>
<path d="M0 0 C1.98 0 3.96 0 6 0 C5.01 0.495 5.01 0.495 4 1 C4 1.66 4 2.32 4 3 C5.32 2.67 6.64 2.34 8 2 C8 3.98 8 5.96 8 8 C6.85073734 7.04578192 5.70569459 6.08647955 4.5625 5.125 C3.92441406 4.59132813 3.28632812 4.05765625 2.62890625 3.5078125 C1 2 1 2 0 0 Z " fill="#6A838E" transform="translate(63,417)"/>
<path d="M0 0 C2.44897847 3.67346771 2.31537716 5.66356399 2 10 C1.34 10.66 0.68 11.32 0 12 C-0.33 11.67 -0.66 11.34 -1 11 C-0.91015699 9.14227838 -0.75388139 7.28752015 -0.5625 5.4375 C-0.46066406 4.42558594 -0.35882813 3.41367188 -0.25390625 2.37109375 C-0.17011719 1.58863281 -0.08632812 0.80617187 0 0 Z " fill="#506775" transform="translate(5,195)"/>
<path d="M0 0 C0.66 0 1.32 0 2 0 C6 6.75 6 6.75 6 9 C5.01 9 4.02 9 3 9 C2.67 7.35 2.34 5.7 2 4 C1.34 4 0.68 4 0 4 C0 2.68 0 1.36 0 0 Z " fill="#4E6571" transform="translate(465,124)"/>
<path d="M0 0 C0 2.83967231 -0.40267181 5.23735711 -1 8 C-2.98 8 -4.96 8 -7 8 C-6.02133662 6.85373678 -5.04205413 5.70800212 -4.0625 4.5625 C-3.51722656 3.92441406 -2.97195312 3.28632812 -2.41015625 2.62890625 C-1.63204305 1.73008851 -0.84063472 0.84063472 0 0 Z " fill="#637D8B" transform="translate(76,69)"/>
<path d="M0 0 C0.66 1.32 1.32 2.64 2 4 C0 7 0 7 -2.625 7.6875 C-3.800625 7.8421875 -3.800625 7.8421875 -5 8 C-3.62845496 5.04590299 -2.01136276 2.55991624 0 0 Z " fill="#566A77" transform="translate(407,428)"/>
<path d="M0 0 C1.32 0.33 2.64 0.66 4 1 C4 1.66 4 2.32 4 3 C4.66 3.33 5.32 3.66 6 4 C6 5.65 6 7.3 6 9 C0.42857143 3.85714286 0.42857143 3.85714286 0 0 Z " fill="#5A707C" transform="translate(211,398)"/>
<path d="M0 0 C2.64 0 5.28 0 8 0 C5.14693203 2.32472205 2.45925163 3.7508258 -1 5 C-1 2 -1 2 0 0 Z " fill="#526A78" transform="translate(142,371)"/>
<path d="M0 0 C0 0.33 0 0.66 0 1 C-4.62 1.33 -9.24 1.66 -14 2 C-13.01 1.34 -12.02 0.68 -11 0 C-10.4225 -0.4125 -9.845 -0.825 -9.25 -1.25 C-5.82052056 -2.39315981 -3.32282681 -1.15020928 0 0 Z " fill="#536A78" transform="translate(173,366)"/>
<path d="M0 0 C1.32 0.33 2.64 0.66 4 1 C5.125 4.75 5.125 4.75 4 7 C4.66 7.33 5.32 7.66 6 8 C5.34 8.66 4.68 9.32 4 10 C3.32845067 8.71086513 2.66291141 7.41859796 2 6.125 C1.62875 5.40570313 1.2575 4.68640625 0.875 3.9453125 C0 2 0 2 0 0 Z " fill="#4B6571" transform="translate(25,359)"/>
<path d="M0 0 C3.39914975 1.13304992 4.05254451 2.12518475 6 5 C5.67 5.66 5.34 6.32 5 7 C2.5625 6.25 2.5625 6.25 0 5 C-0.875 2.9375 -0.875 2.9375 -1 1 C-0.67 0.67 -0.34 0.34 0 0 Z " fill="#4A6473" transform="translate(452,104)"/>
<path d="M0 0 C0.66 0.33 1.32 0.66 2 1 C-0.125 3.5625 -0.125 3.5625 -3 6 C-6.3125 5.8125 -6.3125 5.8125 -9 5 C-6.06626269 3.04417512 -3.21783702 1.43775696 0 0 Z " fill="#586E7B" transform="translate(316,85)"/>
<path d="M0 0 C0.66 0.33 1.32 0.66 2 1 C0.90931332 4.77545388 0.0916909 7.47043472 -3 10 C-3 9.34 -3 8.68 -3 8 C-3.66 7.67 -4.32 7.34 -5 7 C-4.0409375 6.6596875 -4.0409375 6.6596875 -3.0625 6.3125 C-0.72806339 5.14749104 -0.72806339 5.14749104 -0.25 2.375 C-0.1675 1.59125 -0.085 0.8075 0 0 Z " fill="#576B79" transform="translate(465,373)"/>
<path d="M0 0 C1.14926266 0.95421808 2.29430541 1.91352045 3.4375 2.875 C4.07558594 3.40867187 4.71367187 3.94234375 5.37109375 4.4921875 C7 6 7 6 8 8 C6.35 7.67 4.7 7.34 3 7 C3 6.34 3 5.68 3 5 C2.01 4.67 1.02 4.34 0 4 C0 2.68 0 1.36 0 0 Z " fill="#6F8590" transform="translate(426,72)"/>
<path d="M0 0 C0.66 0.33 1.32 0.66 2 1 C2 1.99 2 2.98 2 4 C-0.97 4.66 -3.94 5.32 -7 6 C-4.74259377 3.66475218 -2.7194239 1.81294927 0 0 Z " fill="#576D7A" transform="translate(117,37)"/>
<path d="M0 0 C0.33 0 0.66 0 1 0 C1.28571429 7.42857143 1.28571429 7.42857143 -1 11 C-2.23076923 4.6 -2.23076923 4.6 -1.0625 1.5625 C-0.711875 1.046875 -0.36125 0.53125 0 0 Z " fill="#4D626E" transform="translate(346,359)"/>
<path d="M0 0 C3.63 1.32 7.26 2.64 11 4 C10.01 4.66 9.02 5.32 8 6 C7.01 5.67 6.02 5.34 5 5 C5 4.34 5 3.68 5 3 C3.68 3.33 2.36 3.66 1 4 C0.67 2.68 0.34 1.36 0 0 Z " fill="#6C818D" transform="translate(196,240)"/>
<path d="M0 0 C0 1.65 0 3.3 0 5 C-2.31 4.67 -4.62 4.34 -7 4 C-3.375 0 -3.375 0 0 0 Z " fill="#344D5E" transform="translate(325,81)"/>
<path d="M0 0 C0 0.66 0 1.32 0 2 C0.66 2.33 1.32 2.66 2 3 C-0.31 3.66 -2.62 4.32 -5 5 C-5.66 4.34 -6.32 3.68 -7 3 C-2.25 0 -2.25 0 0 0 Z " fill="#4A6170" transform="translate(126,33)"/>
<path d="M0 0 C2.04119788 1.61594832 4.04072937 3.2856382 6 5 C6 5.66 6 6.32 6 7 C4.68 7 3.36 7 2 7 C0.5393715 4.35261084 0 3.10551666 0 0 Z " fill="#596F7C" transform="translate(146,462)"/>
<path d="M0 0 C0.6875 1.75 0.6875 1.75 1 4 C-0.25 6.25 -0.25 6.25 -2 8 C-2.99 8 -3.98 8 -5 8 C-3.62845496 5.04590299 -2.01136276 2.55991624 0 0 Z " fill="#5C737F" transform="translate(401,436)"/>
<path d="M0 0 C0.88336837 2.4667645 1.1312406 3.63859372 0.22265625 6.140625 C-0.16019531 6.83671875 -0.54304688 7.5328125 -0.9375 8.25 C-1.31777344 8.95640625 -1.69804687 9.6628125 -2.08984375 10.390625 C-2.39019531 10.92171875 -2.69054687 11.4528125 -3 12 C-3.66 12 -4.32 12 -5 12 C-3.68938409 7.76570244 -2.05643741 3.92592596 0 0 Z " fill="#667C87" transform="translate(419,406)"/>
<path d="M0 0 C2.56616632 3.84924948 2.55097676 6.4349304 3 11 C2.34 11 1.68 11 1 11 C-0.62950412 6.87831311 -1.26264601 4.29299643 0 0 Z " fill="#627885" transform="translate(490,180)"/>
<path d="M0 0 C0.99 0.33 1.98 0.66 3 1 C3.94921875 3.06640625 3.94921875 3.06640625 4.6875 5.5625 C4.93886719 6.38878906 5.19023437 7.21507812 5.44921875 8.06640625 C5.63097656 8.70449219 5.81273437 9.34257812 6 10 C2.51668565 6.98112756 1.20842856 4.43090471 0 0 Z " fill="#657885" transform="translate(198,121)"/>
<path d="M0 0 C0.93423645 3.01031744 1.04449911 3.86650268 0 7 C-2.5625 8.6875 -2.5625 8.6875 -5 10 C-3.66511872 6.40608886 -2.03977277 3.24509304 0 0 Z " fill="#657884" transform="translate(36,119)"/>
<path d="M0 0 C0.33 0 0.66 0 1 0 C1.39012425 1.76756294 1.7616098 3.53924783 2.125 5.3125 C2.33382812 6.29863281 2.54265625 7.28476563 2.7578125 8.30078125 C3 11 3 11 1 14 C0.06380187 10.84493858 -0.1057123 8.03413498 -0.0625 4.75 C-0.05347656 3.85796875 -0.04445312 2.9659375 -0.03515625 2.046875 C-0.02355469 1.37140625 -0.01195312 0.6959375 0 0 Z " fill="#8598A5" transform="translate(196,106)"/>
<path d="M0 0 C0.66 0 1.32 0 2 0 C1.74438677 2.3431213 1.40729228 4.67843403 1 7 C0.01 7.495 0.01 7.495 -1 8 C-1.99 7.01 -2.98 6.02 -4 5 C-2.71937515 3.2925002 -1.38232443 1.62626404 0 0 Z " fill="#46626F" transform="translate(210,80)"/>
<path d="M0 0 C1.32 0.33 2.64 0.66 4 1 C0.535 3.97 0.535 3.97 -3 7 C-2.25 2.25 -2.25 2.25 0 0 Z " fill="#6C818E" transform="translate(429,421)"/>
<path d="M0 0 C0.66 1.32 1.32 2.64 2 4 C0.35 5.65 -1.3 7.3 -3 9 C-3.6875 7.1875 -3.6875 7.1875 -4 5 C-2.625 3.375 -2.625 3.375 -1 2 C-0.67 1.34 -0.34 0.68 0 0 Z " fill="#5B6E7B" transform="translate(445,402)"/>
<path d="M0 0 C0.33 0.66 0.66 1.32 1 2 C1.66 2.33 2.32 2.66 3 3 C2.67 3.66 2.34 4.32 2 5 C2.66 5 3.32 5 4 5 C5 8 5 8 4.0625 10.1875 C3.5365625 11.0846875 3.5365625 11.0846875 3 12 C2.49440092 10.56445975 1.9957251 9.1264798 1.5 7.6875 C1.2215625 6.88699219 0.943125 6.08648437 0.65625 5.26171875 C0 3 0 3 0 0 Z " fill="#788F98" transform="translate(10,321)"/>
<path d="M0 0 C1.32 0.66 2.64 1.32 4 2 C3.67 3.98 3.34 5.96 3 8 C1.68 7.34 0.36 6.68 -1 6 C-0.67 4.02 -0.34 2.04 0 0 Z " fill="#3C596B" transform="translate(378,209)"/>
<path d="M0 0 C0.625 1.8125 0.625 1.8125 1 4 C0.01 5.485 0.01 5.485 -1 7 C-1.66 7 -2.32 7 -3 7 C-3 7.99 -3 8.98 -3 10 C-3.66 10 -4.32 10 -5 10 C-3.66511872 6.40608886 -2.03977277 3.24509304 0 0 Z " fill="#657B88" transform="translate(205,86)"/>
<path d="M0 0 C0.33 0.66 0.66 1.32 1 2 C3.02463255 2.65213292 3.02463255 2.65213292 5 3 C5 3.66 5 4.32 5 5 C1.17902761 4.46930939 -1.06171403 3.50298434 -4 1 C-2.68 0.67 -1.36 0.34 0 0 Z " fill="#667B86" transform="translate(145,474)"/>
<path d="M0 0 C0.75 1.625 0.75 1.625 1 4 C-0.9375 7.25 -0.9375 7.25 -3 10 C-3.75 8.375 -3.75 8.375 -4 6 C-2.0625 2.75 -2.0625 2.75 0 0 Z " fill="#58707C" transform="translate(336,387)"/>
<path d="M0 0 C1.32 0 2.64 0 4 0 C4 0.66 4 1.32 4 2 C5.65 2 7.3 2 9 2 C9 2.99 9 3.98 9 5 C5.22454612 3.90931332 2.52956528 3.0916909 0 0 Z " fill="#6E818B" transform="translate(227,150)"/>
<path d="M0 0 C0.99 0 1.98 0 3 0 C2.67 0.99 2.34 1.98 2 3 C-0.5625 4.1875 -0.5625 4.1875 -3 5 C-2.67 3.68 -2.34 2.36 -2 1 C-1.34 1.33 -0.68 1.66 0 2 C0 1.34 0 0.68 0 0 Z " fill="#5E727E" transform="translate(396,450)"/>
<path d="M0 0 C1.98 0 3.96 0 6 0 C3.37801226 2.15377564 1.35595828 3.40072174 -2 4 C-1.34 2.68 -0.68 1.36 0 0 Z " fill="#596F7C" transform="translate(296,421)"/>
<path d="M0 0 C0 3.99904969 -1.72586967 5.80200422 -4 9 C-4.33 7.68 -4.66 6.36 -5 5 C-4.01 4.67 -3.02 4.34 -2 4 C-2 3.01 -2 2.02 -2 1 C-1.34 0.67 -0.68 0.34 0 0 Z " fill="#758996" transform="translate(459,386)"/>
<path d="M0 0 C0.66 0.33 1.32 0.66 2 1 C2 5 2 5 1 7 C0.01 6.67 -0.98 6.34 -2 6 C-2.33 5.01 -2.66 4.02 -3 3 C-2.01 2.01 -1.02 1.02 0 0 Z " fill="#4E6979" transform="translate(93,54)"/>
<path d="M0 0 C2 1 2 1 2 1 Z " fill="#FFFFFF" transform="translate(167,13)"/>
<path d="" fill="#EAEAEA" transform="translate(0,0)"/>
</svg>
